<?xml version="1.0" encoding="UTF-8"?>
<svg width="106px" height="150px" viewBox="0 0 106 150" version="1.1" xmlns="http://www.w3.org/2000/svg" xmlns:xlink="http://www.w3.org/1999/xlink">
    <!-- Generator: Sketch 55 (78076) - https://sketchapp.com -->
    <title>Jelly Copy</title>
    <desc>Created with Sketch.</desc>
    <defs>
        <path d="M15.3277311,9.29916912 L15.3277311,31.3300791 C15.3277311,35.5627151 11.8965016,38.9939446 7.66386555,38.9939446 C3.43122948,38.9939446 -2.61270042e-14,35.5627151 -2.66453526e-14,31.3300791 L-2.75956625e-14,4.65516162 C1.4303964,2.16015234 3.06443816,5.03383891e-13 6.01037519,4.97379915e-13 C10.8060476,4.87606079e-13 12.4816288,5.72448581 15.3277311,9.29916912 Z M44.280112,10.4668269 L44.280112,45.4845938 C44.280112,50.1875228 40.4676348,54 35.7647059,54 C31.0617769,54 27.2492997,50.1875228 27.2492997,45.4845938 L27.2492997,5.7954643 C28.8528627,2.85751859 30.5056985,4.97379915e-13 33.8939513,4.97379915e-13 C39.2581949,4.97379915e-13 40.7186591,7.16233198 44.280112,10.4668269 Z M71.5294118,9.81635177 L71.5294118,35.164758 C71.5294118,39.3973941 68.0981823,42.8286236 63.8655462,42.8286236 C59.6329102,42.8286236 56.2016807,39.3973941 56.2016807,35.164758 L56.2016807,3.92146979 C57.5360404,1.75130485 59.1249861,4.97379915e-13 61.7775273,4.97379915e-13 C66.8120684,4.97379915e-13 68.4079588,6.3089522 71.5294118,9.81635177 Z" id="path-1"></path>
        <path d="M15.3277311,16.168167 C13.9682595,14.5863649 12.3590178,13.4125691 10.0315923,13.4125691 C4.50502573,13.4125691 3.49056042,20.0309503 4.5519144e-15,23.0147759 L1.77635684e-15,-5.15135185 C1.25800842e-15,-9.38398791 3.43122948,-12.8152174 7.66386555,-12.8152174 C11.8965016,-12.8152174 15.3277311,-9.38398791 15.3277311,-5.15135185 L15.3277311,16.168167 Z M44.280112,16.6788343 C42.830185,14.8456944 41.1353313,13.4125691 38.5636236,13.4125691 C32.4150051,13.4125691 31.8513859,21.6046845 27.2492997,23.8695652 L27.2492997,11.6682823 C27.2492997,6.96535338 31.0617769,3.15287618 35.7647059,3.15287618 C40.4676348,3.15287618 44.280112,6.96535338 44.280112,11.6682823 L44.280112,16.6788343 Z M71.5294118,15.2620078 C70.3496376,14.1583151 68.9507877,13.4125691 67.0956549,13.4125691 C61.1393885,13.4125691 60.4241474,21.1001412 56.2016807,23.6400329 L56.2016807,-1.60288661 C56.2016807,-5.83552267 59.6329102,-9.26675215 63.8655462,-9.26675215 C68.0981823,-9.26675215 71.5294118,-5.83552267 71.5294118,-1.60288661 L71.5294118,15.2620078 Z" id="path-3"></path>
        <path d="M100.046959,79.6540476 C98.0925006,82.6091034 96.607601,86.25 92.6339616,86.25 C85.9464237,86.25 85.5848384,75.9375 78.8937205,75.9375 C72.2026026,75.9375 72.5641879,86.25 65.87665,86.25 C59.1891121,86.25 58.8275268,75.9375 52.1364088,75.9375 C45.4452909,75.9375 45.8068762,86.25 39.1193383,86.25 C32.4318004,86.25 32.0702151,75.9375 25.3790972,75.9375 C18.6879792,75.9375 19.0495645,86.25 12.3620266,86.25 C10.2602699,86.25 8.78333809,85.2314172 7.53838058,83.8344912 C2.75303157,75.5062047 0,65.746755 0,55.3125 C0,24.7642498 23.5972273,0 52.7058824,0 C81.8145374,0 105.411765,24.7642498 105.411765,55.3125 C105.411765,64.0471157 103.482571,72.3088597 100.046959,79.6540476 Z" id="path-5"></path>
        <linearGradient x1="50%" y1="0%" x2="50%" y2="100%" id="linearGradient-7">
            <stop stop-color="#3DC5FF" offset="0%"></stop>
            <stop stop-color="#A7A7A7" offset="100%"></stop>
        </linearGradient>
        <linearGradient x1="50%" y1="0%" x2="50%" y2="100%" id="linearGradient-8">
            <stop stop-color="#687CF1" offset="0%"></stop>
            <stop stop-color="#5362F1" offset="100%"></stop>
        </linearGradient>
    </defs>
    <g id="Page-1" stroke="none" stroke-width="1" fill="none" fill-rule="evenodd">
        <g id="Custom-Preset-3" transform="translate(-171.000000, -99.000000)">
            <g id="Jelly-Copy" transform="translate(160.000000, 99.000000)">
                <path d="M111.341076,111.654048 C109.386618,114.609103 107.901719,118.25 103.928079,118.25 C97.2405414,118.25 96.8789561,107.9375 90.1878382,107.9375 C83.4967202,107.9375 83.8583055,118.25 77.1707676,118.25 C70.4832297,118.25 70.1216444,107.9375 63.4305265,107.9375 C56.7394086,107.9375 57.1009938,118.25 50.4134559,118.25 C43.725918,118.25 43.3643327,107.9375 36.6732148,107.9375 C29.9820969,107.9375 30.3436822,118.25 23.6561443,118.25 C21.5543876,118.25 20.0774557,117.231417 18.8324982,115.834491 C14.0471492,107.506205 11.2941176,97.746755 11.2941176,87.3125 C11.2941176,56.7642498 34.891345,32 64,32 C93.108655,32 116.705882,56.7642498 116.705882,87.3125 C116.705882,96.0471157 114.776688,104.30886 111.341076,111.654048 Z" id="Body-Copy-2" fill="#FB70A9"></path>
                <g id="Legs" transform="translate(30.117647, 95.750000)">
                    <mask id="mask-2" fill="white">
                        <use xlink:href="#path-1"></use>
                    </mask>
                    <use id="Combined-Shape" fill="#4E56A6" xlink:href="#path-1"></use>
                    <mask id="mask-4" fill="white">
                        <use xlink:href="#path-3"></use>
                    </mask>
                    <use id="Combined-Shape" fill-opacity="0.298513986" fill="#000000" xlink:href="#path-3"></use>
                </g>
                <path d="M111.341076,111.654048 C109.386618,114.609103 107.901719,118.25 103.928079,118.25 C97.2405414,118.25 96.8789561,107.9375 90.1878382,107.9375 C83.4967202,107.9375 83.8583055,118.25 77.1707676,118.25 C70.4832297,118.25 70.1216444,107.9375 63.4305265,107.9375 C56.7394086,107.9375 57.1009938,118.25 50.4134559,118.25 C43.725918,118.25 43.3643327,107.9375 36.6732148,107.9375 C29.9820969,107.9375 30.3436822,118.25 23.6561443,118.25 C21.5543876,118.25 20.0774557,117.231417 18.8324982,115.834491 C14.0471492,107.506205 11.2941176,97.746755 11.2941176,87.3125 C11.2941176,56.7642498 34.891345,32 64,32 C93.108655,32 116.705882,56.7642498 116.705882,87.3125 C116.705882,96.0471157 114.776688,104.30886 111.341076,111.654048 Z" id="Body-Copy-4" fill="#FB70A9"></path>
                <path d="M101.89013,117.339908 C114.280106,97.309894 114.247756,75.0737125 101.79308,50.6313635 C110.988899,60.250262 116.705882,73.7321902 116.705882,88.6576087 C116.705882,97.0124584 114.914488,104.914996 111.724277,111.940828 C109.909423,114.767403 108.530587,118.25 104.84078,118.25 C103.676583,118.25 102.718845,117.903305 101.89013,117.339908 Z" id="Combined-Shape" fill="#E24CA6"></path>
                <g id="goggles" transform="translate(11.294118, 32.000000)">
                    <mask id="mask-6" fill="white">
                        <use xlink:href="#path-5"></use>
                    </mask>
                    <g id="Body-Copy-5"></g>
                    <rect id="Rectangle" fill="#3846CC" mask="url(#mask-6)" x="-13.5529412" y="37.5" width="126.494118" height="12.75"></rect>
                </g>
                <g id="Eyes-Copy-2" transform="translate(0.000000, 39.500000)">
                    <path d="M62.3589744,69.2211538 C39.8537171,69.2211538 28.2295626,57.0818979 28.2295626,36.4856167 C28.2295626,16.9413776 43.8404357,-0.278846154 62.3589744,-0.278846154 C80.877513,-0.278846154 96.4883861,16.9413776 96.4883861,36.4856167 C96.4883861,57.0818979 84.8642317,69.2211538 62.3589744,69.2211538 Z" id="Oval" stroke="#2230B3" stroke-width="2" fill="#3240C7"></path>
                    <g id="EyeBall" transform="translate(36.102564, 7.500000)">
                        <path d="M26.2564103,53.9423077 C44.7331434,53.9423077 52.5128205,43.4630809 52.5128205,28.5810023 C52.5128205,13.6989238 40.7574252,-4.97379915e-14 26.2564103,-4.97379915e-14 C11.7553953,-4.97379915e-14 2.13162821e-14,13.6989238 2.13162821e-14,28.5810023 C2.13162821e-14,43.4630809 7.77967711,53.9423077 26.2564103,53.9423077 Z" id="Oval-Copy-9" fill="#FFFFFF"></path>
                        <g id="Pupil" transform="translate(9.350750, 8.173077)">
                            <ellipse id="Oval" fill="#030776" cx="9.84615385" cy="10.625" rx="9.84615385" ry="10.625"></ellipse>
                            <ellipse id="Oval" fill="#FFFFFF" cx="8.20512821" cy="8.17307692" rx="4.92307692" ry="4.90384615"></ellipse>
                        </g>
                    </g>
                    <path d="M62.3589744,61.4423077 C80.8357075,61.4423077 88.6153846,50.9630809 88.6153846,36.0810023 C88.6153846,21.1989238 76.8599893,7.5 62.3589744,7.5 C47.8579594,7.5 36.1025641,21.1989238 36.1025641,36.0810023 C36.1025641,50.9630809 43.8822412,61.4423077 62.3589744,61.4423077 Z" id="Oval-Copy-10" fill="url(#linearGradient-7)" opacity="0.389625186"></path>
                    <path d="M70.0235294,37.5 L80.5936652,26.9711538" id="Path-2" stroke="#FFF7F7" stroke-width="2.25"></path>
                    <path d="M65.5058824,50.25 L83.5764706,32.25" id="Path-2-Copy" stroke="#FFF7F7" stroke-width="2.25"></path>
                </g>
                <path d="M32.8784314,16.1646005 C32.8784314,15.7263132 32.8784314,15.0688823 32.8784314,14.1923077 C28.0261438,13.7307692 23.3411765,9 18.8235294,0 L18.8235294,16 C28.1934641,34.6201643 32.8784314,34.6750312 32.8784314,16.1646005 Z" id="Path-5-Copy" fill="#4956CB"></path>
                <path d="M39.2390224,108.533014 C43.604839,110.729472 44.702505,118.25 50.4134559,118.25 C56.1611535,118.25 56.7018172,110.632381 60.9882353,108.49128 L60.9882353,108.557692 C60.9882353,118.019231 53.9607843,122.75 39.9058824,122.75 C25.8509804,122.75 18.8235294,118.019231 18.8235294,108.557692 L18.8235294,8 C23.3411765,13 28.0261438,15.7307692 32.8784314,16.1923077 L32.8784314,101.461538 C32.8784314,105.913325 34.9986284,108.270483 39.2390224,108.533014 Z" id="Combined-Shape" fill="url(#linearGradient-8)"></path>
            </g>
        </g>
    </g>
</svg>