<?xml version="1.0" encoding="UTF-8"?>
<svg width="347px" height="171px" viewBox="0 0 347 171" version="1.1" xmlns="http://www.w3.org/2000/svg" xmlns:xlink="http://www.w3.org/1999/xlink">
    <!-- Generator: Sketch 55.1 (78136) - https://sketchapp.com -->
    <title> </title>
    <desc>Created with Sketch.</desc>
    <g id="Page-1" stroke="none" stroke-width="1" fill="none" fill-rule="evenodd">
        <g id="Podcast" transform="translate(-77.000000, -27.000000)" fill="#FFFFFF">
            <path d="M77,118 L424,118 L424,198 L77,198 L77,118 Z M92.6642001,187 L121.8182,187 C126.003554,187 128.0962,185.194018 128.0962,181.582 C128.0962,177.912648 126.003554,176.078 121.8182,176.078 L99.8022001,176.078 L99.8022001,132.562 C99.8022001,130.555323 99.2002061,128.950006 97.9962001,127.746 C96.7921941,126.541994 95.1582104,125.94 93.0942001,125.94 C91.0301898,125.94 89.3962061,126.541994 88.1922001,127.746 C86.9881941,128.950006 86.3862001,130.555323 86.3862001,132.562 L86.3862001,180.722 C86.3862001,182.728677 86.9308613,184.276661 88.0202001,185.366 C89.1095389,186.455339 90.6575234,187 92.6642001,187 Z M140.5834,187.516 C142.418076,187.516 143.951727,187.000005 145.1844,185.968 C146.417073,184.935995 147.0334,183.416677 147.0334,181.41 L147.0334,150.02 C147.0334,148.013323 146.417073,146.494005 145.1844,145.462 C143.951727,144.429995 142.418076,143.914 140.5834,143.914 C138.748724,143.914 137.20074,144.429995 135.9394,145.462 C134.67806,146.494005 134.0474,148.013323 134.0474,150.02 L134.0474,181.41 C134.0474,183.416677 134.663727,184.935995 135.8964,185.968 C137.129073,187.000005 138.691391,187.516 140.5834,187.516 Z M140.5834,137.034 C142.876745,137.034 144.682727,136.446339 146.0014,135.271 C147.320073,134.095661 147.9794,132.504677 147.9794,130.498 C147.9794,128.548657 147.30574,126.986339 145.9584,125.811 C144.61106,124.635661 142.819411,124.048 140.5834,124.048 C138.290055,124.048 136.484073,124.621328 135.1654,125.768 C133.846727,126.914672 133.1874,128.491323 133.1874,130.498 C133.1874,132.504677 133.846727,134.095661 135.1654,135.271 C136.484073,136.446339 138.290055,137.034 140.5834,137.034 Z M186.0946,147.612 L175.6026,170.746 L165.0246,147.612 C164.451264,146.407994 163.677272,145.505003 162.7026,144.903 C161.727929,144.300997 160.638606,144 159.4346,144 C157.771925,144 156.26694,144.544661 154.9196,145.634 C153.57226,146.723339 152.8986,148.041992 152.8986,149.59 C152.8986,150.335337 153.070598,151.109329 153.4146,151.912 L168.8946,183.646 C169.52527,184.90734 170.413928,185.867663 171.5606,186.527 C172.707272,187.186337 173.939927,187.516 175.2586,187.516 C176.577273,187.516 177.809928,187.186337 178.9566,186.527 C180.103272,185.867663 180.963264,184.90734 181.5366,183.646 L197.0166,151.912 C197.417935,151.109329 197.6186,150.278004 197.6186,149.418 C197.6186,147.927326 196.98794,146.651672 195.7266,145.591 C194.46526,144.530328 193.031941,144 191.4266,144 C190.337261,144 189.319605,144.300997 188.3736,144.903 C187.427595,145.505003 186.667936,146.407994 186.0946,147.612 Z M236.5078,174.444 C235.934464,174.444 235.275137,174.572999 234.5298,174.831 C233.784463,175.089001 233.010471,175.389998 232.2078,175.734 C230.602459,176.422003 229.140473,176.966665 227.8218,177.368 C226.503127,177.769335 225.012475,177.97 223.3498,177.97 C220.253785,177.97 217.874475,177.210341 216.2118,175.691 C214.549125,174.171659 213.517135,171.720684 213.1158,168.338 L237.1958,168.338 C238.285139,168.338 239.130797,168.008337 239.7328,167.349 C240.334803,166.689663 240.6358,165.72934 240.6358,164.468 C240.6358,160.282646 239.833141,156.627682 238.2278,153.503 C236.622459,150.378318 234.372148,147.970342 231.4768,146.279 C228.581452,144.587658 225.213153,143.742 221.3718,143.742 C217.358447,143.742 213.775149,144.673657 210.6218,146.537 C207.468451,148.400343 205.003142,150.99465 203.2258,154.32 C201.448458,157.64535 200.5598,161.457978 200.5598,165.758 C200.5598,170.230022 201.477124,174.114317 203.3118,177.411 C205.146476,180.707683 207.76945,183.244658 211.1808,185.022 C214.59215,186.799342 218.59111,187.688 223.1778,187.688 C225.356478,187.688 227.735787,187.358337 230.3158,186.699 C232.895813,186.039663 235.160457,185.194005 237.1098,184.162 C238.141805,183.588664 238.944464,182.886337 239.5178,182.055 C240.091136,181.223663 240.3778,180.320672 240.3778,179.346 C240.3778,177.912659 240.01947,176.737338 239.3028,175.82 C238.58613,174.902662 237.654472,174.444 236.5078,174.444 Z M221.7158,152.686 C224.181146,152.686 226.08746,153.459992 227.4348,155.008 C228.78214,156.556008 229.541799,158.849318 229.7138,161.888 L213.1158,161.888 C213.402468,158.906652 214.291126,156.627675 215.7818,155.051 C217.272474,153.474325 219.250454,152.686 221.7158,152.686 Z M304.637,147.698 L295.521,170.832 L285.975,147.87 C285.458997,146.60866 284.685005,145.66267 283.653,145.032 C282.620995,144.40133 281.503006,144.086 280.299,144.086 C279.094994,144.086 277.991338,144.415663 276.988,145.075 C275.984662,145.734337 275.225003,146.665994 274.709,147.87 L265.335,170.832 L256.133,147.698 C255.616997,146.493994 254.886005,145.57667 253.94,144.946 C252.993995,144.31533 251.947672,144 250.801,144 C249.080991,144 247.54734,144.544661 246.2,145.634 C244.85266,146.723339 244.179,148.070659 244.179,149.676 C244.179,150.421337 244.350998,151.195329 244.695,151.998 L258.713,183.646 C259.229003,184.90734 260.060328,185.867663 261.207,186.527 C262.353672,187.186337 263.586327,187.516 264.905,187.516 C266.281007,187.516 267.513661,187.186337 268.603,186.527 C269.692339,185.867663 270.494997,184.90734 271.011,183.646 L279.869,162.232 L289.071,183.646 C289.587003,184.90734 290.403994,185.867663 291.522,186.527 C292.640006,187.186337 293.858327,187.516 295.177,187.516 C296.43834,187.516 297.642328,187.186337 298.789,186.527 C299.935672,185.867663 300.766997,184.90734 301.283,183.646 L315.387,151.998 C315.731002,151.137996 315.903,150.364003 315.903,149.676 C315.903,148.070659 315.27234,146.723339 314.011,145.634 C312.74966,144.544661 311.316341,144 309.711,144 C308.679,144 307.704338,144.31533 306.787,144.946 C305.869662,145.57667 305.153003,146.493994 304.637,147.698 Z M328.9062,187.516 C330.740876,187.516 332.274527,187.000005 333.5072,185.968 C334.739873,184.935995 335.3562,183.416677 335.3562,181.41 L335.3562,150.02 C335.3562,148.013323 334.739873,146.494005 333.5072,145.462 C332.274527,144.429995 330.740876,143.914 328.9062,143.914 C327.071524,143.914 325.52354,144.429995 324.2622,145.462 C323.00086,146.494005 322.3702,148.013323 322.3702,150.02 L322.3702,181.41 C322.3702,183.416677 322.986527,184.935995 324.2192,185.968 C325.451873,187.000005 327.014191,187.516 328.9062,187.516 Z M328.9062,137.034 C331.199545,137.034 333.005527,136.446339 334.3242,135.271 C335.642873,134.095661 336.3022,132.504677 336.3022,130.498 C336.3022,128.548657 335.62854,126.986339 334.2812,125.811 C332.93386,124.635661 331.142211,124.048 328.9062,124.048 C326.612855,124.048 324.806873,124.621328 323.4882,125.768 C322.169527,126.914672 321.5102,128.491323 321.5102,130.498 C321.5102,132.504677 322.169527,134.095661 323.4882,135.271 C324.806873,136.446339 326.612855,137.034 328.9062,137.034 Z M370.8054,143.914 L369.6014,144 C367.136054,144.172001 364.857077,144.917327 362.7644,146.236 C360.671723,147.554673 359.109405,149.446654 358.0774,151.912 L358.0774,149.59 C358.0774,147.812658 357.504072,146.422338 356.3574,145.419 C355.210728,144.415662 353.777409,143.914 352.0574,143.914 C350.280058,143.914 348.76074,144.429995 347.4994,145.462 C346.23806,146.494005 345.6074,147.955991 345.6074,149.848 L345.6074,181.41 C345.6074,183.416677 346.223727,184.935995 347.4564,185.968 C348.689073,187.000005 350.25139,187.516 352.1434,187.516 C353.978076,187.516 355.511727,187.000005 356.7444,185.968 C357.977073,184.935995 358.5934,183.416677 358.5934,181.41 L358.5934,164.984 C358.5934,162.28932 359.295726,160.082009 360.7004,158.362 C362.105074,156.641991 364.384051,155.610002 367.5374,155.266 L370.1174,155.008 C372.468078,154.778666 374.102062,154.205338 375.0194,153.288 C375.936738,152.370662 376.3954,150.966009 376.3954,149.074 C376.3954,147.296658 375.893738,145.963671 374.8904,145.075 C373.887062,144.186329 372.525409,143.799333 370.8054,143.914 Z M413.3926,174.444 C412.819264,174.444 412.159937,174.572999 411.4146,174.831 C410.669263,175.089001 409.895271,175.389998 409.0926,175.734 C407.487259,176.422003 406.025273,176.966665 404.7066,177.368 C403.387927,177.769335 401.897275,177.97 400.2346,177.97 C397.138584,177.97 394.759275,177.210341 393.0966,175.691 C391.433925,174.171659 390.401935,171.720684 390.0006,168.338 L414.0806,168.338 C415.169939,168.338 416.015597,168.008337 416.6176,167.349 C417.219603,166.689663 417.5206,165.72934 417.5206,164.468 C417.5206,160.282646 416.717941,156.627682 415.1126,153.503 C413.507259,150.378318 411.256948,147.970342 408.3616,146.279 C405.466252,144.587658 402.097952,143.742 398.2566,143.742 C394.243247,143.742 390.659949,144.673657 387.5066,146.537 C384.353251,148.400343 381.887942,150.99465 380.1106,154.32 C378.333258,157.64535 377.4446,161.457978 377.4446,165.758 C377.4446,170.230022 378.361924,174.114317 380.1966,177.411 C382.031276,180.707683 384.65425,183.244658 388.0656,185.022 C391.47695,186.799342 395.47591,187.688 400.0626,187.688 C402.241277,187.688 404.620587,187.358337 407.2006,186.699 C409.780613,186.039663 412.045257,185.194005 413.9946,184.162 C415.026605,183.588664 415.829264,182.886337 416.4026,182.055 C416.975936,181.223663 417.2626,180.320672 417.2626,179.346 C417.2626,177.912659 416.90427,176.737338 416.1876,175.82 C415.47093,174.902662 414.539272,174.444 413.3926,174.444 Z M398.6006,152.686 C401.065946,152.686 402.97226,153.459992 404.3196,155.008 C405.66694,156.556008 406.426599,158.849318 406.5986,161.888 L390.0006,161.888 C390.287268,158.906652 391.175926,156.627675 392.6666,155.051 C394.157274,153.474325 396.135254,152.686 398.6006,152.686 Z" id="Combined-Shape"></path>
            <path d="M119.7962,60.785 C123.496885,61.8770055 126.363357,63.7728198 128.3957,66.4725 C130.428044,69.1721802 131.4442,72.4936469 131.4442,76.437 C131.4442,81.8363603 129.457387,86.1133176 125.4837,89.268 C121.510014,92.4226824 116.034902,94 109.0582,94 L85.2162001,94 C83.0928561,94 81.4548725,93.4236724 80.3022001,92.271 C79.1495277,91.1183276 78.5732001,89.480344 78.5732001,87.357 L78.5732001,36.488 C78.5732001,34.364656 79.1495277,32.7266724 80.3022001,31.574 C81.4548725,30.4213276 83.0928561,29.845 85.2162001,29.845 L108.1482,29.845 C114.821567,29.845 120.114681,31.3313185 124.0277,34.304 C127.94072,37.2766815 129.8972,41.3413076 129.8972,46.498 C129.8972,49.8346834 129.002376,52.7618207 127.2127,55.2795 C125.423024,57.7971793 122.950883,59.6323276 119.7962,60.785 Z M92.4052001,55.962 L105.7822,55.962 C109.422218,55.962 112.106691,55.3401729 113.8357,54.0965 C115.564709,52.8528271 116.4292,50.9570127 116.4292,48.409 C116.4292,45.7396533 115.564709,43.7831729 113.8357,42.5395 C112.106691,41.2958271 109.422218,40.674 105.7822,40.674 L92.4052001,40.674 L92.4052001,55.962 Z M107.4202,83.171 C111.181552,83.171 113.911525,82.5340064 115.6102,81.26 C117.308875,79.9859936 118.1582,77.9233476 118.1582,75.072 C118.1582,72.2206524 117.308875,70.1276733 115.6102,68.793 C113.911525,67.4583267 111.181552,66.791 107.4202,66.791 L92.4052001,66.791 L92.4052001,83.171 L107.4202,83.171 Z M176.5984,48.409 C178.721744,48.409 180.405227,48.9853276 181.6489,50.138 C182.892573,51.2906724 183.5144,52.86799 183.5144,54.87 L183.5144,88.267 C183.5144,90.1476761 182.86224,91.6643276 181.5579,92.817 C180.25356,93.9696724 178.570077,94.546 176.5074,94.546 C174.566057,94.546 173.019072,94.0000055 171.8664,92.908 C170.713728,91.8159945 170.1374,90.3600091 170.1374,88.54 L170.1374,87.63 C168.74206,89.9353449 166.906911,91.6946606 164.6319,92.908 C162.356889,94.1213394 159.793748,94.728 156.9424,94.728 C151.300372,94.728 147.099247,93.165849 144.3389,90.0415 C141.578553,86.917151 140.1984,82.2003649 140.1984,75.891 L140.1984,54.87 C140.1984,52.86799 140.820227,51.2906724 142.0639,50.138 C143.307573,48.9853276 144.991056,48.409 147.1144,48.409 C149.237744,48.409 150.906061,48.9853276 152.1194,50.138 C153.332739,51.2906724 153.9394,52.86799 153.9394,54.87 L153.9394,76.164 C153.9394,78.8333467 154.500561,80.8049936 155.6229,82.079 C156.745239,83.3530064 158.459055,83.99 160.7644,83.99 C163.433747,83.99 165.602558,83.0800091 167.2709,81.26 C168.939242,79.4399909 169.7734,77.0436815 169.7734,74.071 L169.7734,54.87 C169.7734,52.86799 170.380061,51.2906724 171.5934,50.138 C172.806739,48.9853276 174.475056,48.409 176.5984,48.409 Z M201.2776,94.546 C199.27559,94.546 197.62244,94.0000055 196.3181,92.908 C195.01376,91.8159945 194.3616,90.2083439 194.3616,88.085 L194.3616,54.87 C194.3616,52.746656 195.028927,51.1390055 196.3636,50.047 C197.698273,48.9549945 199.336257,48.409 201.2776,48.409 C203.218943,48.409 204.84176,48.9549945 206.1461,50.047 C207.45044,51.1390055 208.1026,52.746656 208.1026,54.87 L208.1026,88.085 C208.1026,90.2083439 207.45044,91.8159945 206.1461,92.908 C204.84176,94.0000055 203.218943,94.546 201.2776,94.546 Z M201.2776,41.129 C198.850921,41.129 196.93994,40.5071729 195.5446,39.2635 C194.14926,38.0198271 193.4516,36.3363439 193.4516,34.213 C193.4516,32.0896561 194.14926,30.4213394 195.5446,29.208 C196.93994,27.9946606 198.850921,27.388 201.2776,27.388 C203.643612,27.388 205.539426,28.0098271 206.9651,29.2535 C208.390774,30.4971729 209.1036,32.150323 209.1036,34.213 C209.1036,36.3363439 208.40594,38.0198271 207.0106,39.2635 C205.61526,40.5071729 203.704279,41.129 201.2776,41.129 Z M225.8658,94.546 C223.86379,94.546 222.21064,94.0000055 220.9063,92.908 C219.60196,91.8159945 218.9498,90.2083439 218.9498,88.085 L218.9498,35.851 C218.9498,33.7276561 219.60196,32.1200055 220.9063,31.028 C222.21064,29.9359945 223.86379,29.39 225.8658,29.39 C227.807143,29.39 229.42996,29.9359945 230.7343,31.028 C232.03864,32.1200055 232.6908,33.7276561 232.6908,35.851 L232.6908,88.085 C232.6908,90.2083439 232.03864,91.8159945 230.7343,92.908 C229.42996,94.0000055 227.807143,94.546 225.8658,94.546 Z M281.667,29.39 C283.790344,29.39 285.50416,29.9663276 286.8085,31.119 C288.11284,32.2716724 288.765,33.7883239 288.765,35.669 L288.765,88.085 C288.765,90.026343 288.143173,91.5884941 286.8995,92.7715 C285.655827,93.9545059 284.002677,94.546 281.94,94.546 C279.877323,94.546 278.224173,93.9545059 276.9805,92.7715 C275.736827,91.5884941 275.115,90.026343 275.115,88.085 L275.115,87.357 C273.780327,89.6623449 271.884512,91.4671601 269.4275,92.7715 C266.970488,94.0758399 264.195015,94.728 261.101,94.728 C257.278981,94.728 253.866515,93.7421765 250.8635,91.7705 C247.860485,89.7988235 245.524842,87.0385177 243.8565,83.4895 C242.188158,79.9404823 241.354,75.8606897 241.354,71.25 C241.354,66.6393103 242.188158,62.5898508 243.8565,59.1015 C245.524842,55.6131492 247.845318,52.9286761 250.818,51.048 C253.790682,49.1673239 257.218314,48.227 261.101,48.227 C264.134348,48.227 266.879488,48.8639936 269.3365,50.138 C271.793512,51.4120064 273.689327,53.2016551 275.024,55.507 L275.024,35.396 C275.024,33.5759909 275.630661,32.1200055 276.844,31.028 C278.057339,29.9359945 279.66499,29.39 281.667,29.39 Z M265.105,84.263 C268.320349,84.263 270.792491,83.1558444 272.5215,80.9415 C274.250509,78.7271556 275.115,75.557354 275.115,71.432 C275.115,67.306646 274.250509,64.1520109 272.5215,61.968 C270.792491,59.7839891 268.320349,58.692 265.105,58.692 C261.889651,58.692 259.402342,59.7688226 257.643,61.9225 C255.883658,64.0761774 255.004,67.185313 255.004,71.25 C255.004,75.375354 255.883658,78.5754886 257.643,80.8505 C259.402342,83.1255114 261.889651,84.263 265.105,84.263 Z M306.5282,94.546 C304.52619,94.546 302.87304,94.0000055 301.5687,92.908 C300.26436,91.8159945 299.6122,90.2083439 299.6122,88.085 L299.6122,54.87 C299.6122,52.746656 300.279527,51.1390055 301.6142,50.047 C302.948873,48.9549945 304.586857,48.409 306.5282,48.409 C308.469543,48.409 310.09236,48.9549945 311.3967,50.047 C312.70104,51.1390055 313.3532,52.746656 313.3532,54.87 L313.3532,88.085 C313.3532,90.2083439 312.70104,91.8159945 311.3967,92.908 C310.09236,94.0000055 308.469543,94.546 306.5282,94.546 Z M306.5282,41.129 C304.101521,41.129 302.19054,40.5071729 300.7952,39.2635 C299.39986,38.0198271 298.7022,36.3363439 298.7022,34.213 C298.7022,32.0896561 299.39986,30.4213394 300.7952,29.208 C302.19054,27.9946606 304.101521,27.388 306.5282,27.388 C308.894212,27.388 310.790026,28.0098271 312.2157,29.2535 C313.641374,30.4971729 314.3542,32.150323 314.3542,34.213 C314.3542,36.3363439 313.65654,38.0198271 312.2612,39.2635 C310.86586,40.5071729 308.954879,41.129 306.5282,41.129 Z M352.2284,48.227 C357.567093,48.227 361.54072,49.789151 364.1494,52.9135 C366.75808,56.037849 368.0624,60.7546351 368.0624,67.064 L368.0624,88.085 C368.0624,90.08701 367.440573,91.6643276 366.1969,92.817 C364.953227,93.9696724 363.269744,94.546 361.1464,94.546 C359.023056,94.546 357.354739,93.9696724 356.1414,92.817 C354.928061,91.6643276 354.3214,90.08701 354.3214,88.085 L354.3214,67.701 C354.3214,64.6676515 353.760239,62.4533403 352.6379,61.058 C351.515561,59.6626597 349.771412,58.965 347.4054,58.965 C344.554052,58.965 342.263909,59.8749909 340.5349,61.695 C338.805891,63.5150091 337.9414,65.9416515 337.9414,68.975 L337.9414,88.085 C337.9414,90.08701 337.334739,91.6643276 336.1214,92.817 C334.908061,93.9696724 333.239744,94.546 331.1164,94.546 C328.993056,94.546 327.309573,93.9696724 326.0659,92.817 C324.822227,91.6643276 324.2004,90.08701 324.2004,88.085 L324.2004,54.688 C324.2004,52.8073239 324.85256,51.2906724 326.1569,50.138 C327.46124,48.9853276 329.144723,48.409 331.2074,48.409 C333.088076,48.409 334.619894,48.9701611 335.8029,50.0925 C336.985906,51.2148389 337.5774,52.6556579 337.5774,54.415 L337.5774,55.689 C339.154741,53.2623212 341.202221,51.4120064 343.7199,50.138 C346.237579,48.8639936 349.073718,48.227 352.2284,48.227 Z M417.4026,48.409 C419.465277,48.409 421.118427,49.0004941 422.3621,50.1835 C423.605773,51.3665059 424.2276,52.928657 424.2276,54.87 L424.2276,89.177 C424.2276,96.3963694 422.134621,101.856315 417.9486,105.557 C413.762579,109.257685 407.635307,111.108 399.5666,111.108 C392.771899,111.108 387.190622,109.894679 382.8226,107.468 C381.730594,106.86133 380.88127,106.118171 380.2746,105.2385 C379.66793,104.358829 379.3646,103.373005 379.3646,102.281 C379.3646,100.764326 379.728596,99.5206715 380.4566,98.55 C381.184604,97.5793285 382.155261,97.094 383.3686,97.094 C384.035937,97.094 384.824595,97.2304986 385.7346,97.5035 C386.644604,97.7765014 387.584928,98.0949982 388.5556,98.459 C390.496943,99.1870036 392.286592,99.7633312 393.9246,100.188 C395.562608,100.612669 397.321924,100.825 399.2026,100.825 C403.085286,100.825 405.966924,99.9453421 407.8476,98.186 C409.728276,96.4266579 410.6686,93.7573512 410.6686,90.178 L410.6686,85.264 C409.394594,87.5693449 407.483613,89.3893267 404.9356,90.724 C402.387587,92.0586733 399.536282,92.726 396.3816,92.726 C392.498914,92.726 389.056115,91.8160091 386.0531,89.996 C383.050085,88.1759909 380.699275,85.5825168 379.0006,82.2155 C377.301925,78.8484832 376.4526,74.9506888 376.4526,70.522 C376.4526,66.0933112 377.301925,62.1955168 379.0006,58.8285 C380.699275,55.4614832 383.050085,52.8528426 386.0531,51.0025 C389.056115,49.1521574 392.498914,48.227 396.3816,48.227 C399.475615,48.227 402.281421,48.8791601 404.7991,50.1835 C407.316779,51.4878399 409.242927,53.2926551 410.5776,55.598 L410.5776,54.688 C410.5776,52.746657 411.199427,51.2148389 412.4431,50.0925 C413.686773,48.9701611 415.339923,48.409 417.4026,48.409 Z M400.3856,82.261 C403.600949,82.261 406.103424,81.229677 407.8931,79.167 C409.682776,77.104323 410.5776,74.2226852 410.5776,70.522 C410.5776,66.8213148 409.682776,63.9245105 407.8931,61.8315 C406.103424,59.7384895 403.600949,58.692 400.3856,58.692 C397.170251,58.692 394.652609,59.7384895 392.8326,61.8315 C391.012591,63.9245105 390.1026,66.8213148 390.1026,70.522 C390.1026,74.2226852 391.012591,77.104323 392.8326,79.167 C394.652609,81.229677 397.170251,82.261 400.3856,82.261 Z" id="Building" fill-rule="nonzero"></path>
        </g>
    </g>
</svg>