<?xml version="1.0" encoding="UTF-8"?>
<svg width="500px" height="277px" viewBox="0 0 500 277" version="1.1" xmlns="http://www.w3.org/2000/svg" xmlns:xlink="http://www.w3.org/1999/xlink">
    <!-- Generator: Sketch 55.1 (78136) - https://sketchapp.com -->
    <title>Podcast</title>
    <desc>Created with Sketch.</desc>
    <defs>
        <path d="M0,214.779661 C65.0994697,188.745763 130.198939,175.728814 195.298409,175.728814 C260.397879,175.728814 325.497349,188.745763 390.596818,214.779661 C390.596818,136.677966 377.576924,84.6101695 351.537136,58.5762712 C325.497349,32.5423729 292.947614,19.5254237 253.887932,19.5254237 L234.358091,0 L156.238727,0 L136.708886,19.5254237 C97.6492046,19.5254237 65.0994697,32.5423729 39.0596818,58.5762712 C13.0198939,84.6101695 0,136.677966 0,214.779661 Z" id="path-1"></path>
        <polygon id="path-3" points="19.5298409 0 0 19.5254237 19.5298409 117.152542 97.6492046 117.152542 117.179045 19.5254237 97.6492046 0"></polygon>
    </defs>
    <g id="Page-1" stroke="none" stroke-width="1" fill="none" fill-rule="evenodd">
        <g id="Podcast" transform="translate(0.000000, -223.000000)">
            <g id="Group-5" transform="translate(-26.000000, 223.000000)">
                <g id="Jelly" transform="translate(0.000000, 114.000000)">
                    <path d="M487.016812,347.003095 C478.520058,359.876432 472.064646,375.737548 454.78976,375.737548 C425.716545,375.737548 424.144599,330.812407 395.055821,330.812407 C365.967042,330.812407 367.538988,375.737548 338.465773,375.737548 C309.392558,375.737548 307.820612,330.812407 278.731834,330.812407 C249.643055,330.812407 251.215001,375.737548 222.141786,375.737548 C193.068572,375.737548 191.496626,330.812407 162.407847,330.812407 C133.319069,330.812407 134.891015,375.737548 105.8178,375.737548 C96.6806816,375.737548 90.2599095,371.300217 84.8476161,365.21468 C64.043924,328.933521 52.0754717,286.417676 52.0754717,240.962123 C52.0754717,107.882417 154.661396,0 281.207547,0 C407.753698,0 510.339623,107.882417 510.339623,240.962123 C510.339623,279.013405 501.952699,315.00468 487.016815,347.00309 Z" id="Body-Copy-2" fill="#FB70A9"></path>
                    <path d="M487.016812,347.003095 C478.520058,359.876432 472.064646,375.737548 454.78976,375.737548 C425.716545,375.737548 424.144599,330.812407 395.055821,330.812407 C365.967042,330.812407 367.538988,375.737548 338.465773,375.737548 C309.392558,375.737548 307.820612,330.812407 278.731834,330.812407 C249.643055,330.812407 251.215001,375.737548 222.141786,375.737548 C193.068572,375.737548 191.496626,330.812407 162.407847,330.812407 C133.319069,330.812407 134.891015,375.737548 105.8178,375.737548 C96.6806816,375.737548 90.2599095,371.300217 84.8476161,365.21468 C64.043924,328.933521 52.0754717,286.417676 52.0754717,240.962123 C52.0754717,107.882417 154.661396,0 281.207547,0 C407.753698,0 510.339623,107.882417 510.339623,240.962123 C510.339623,279.013405 501.952699,315.00468 487.016815,347.00309 Z" id="Body-Copy-4" fill="#FB70A9"></path>
                    <path d="M439.607207,370.937405 C499.652585,281.422378 501.204142,182.129936 444.261877,73.0600788 C486.469727,116.391876 512.512851,175.856674 512.512851,241.469681 C512.512851,279.377664 503.819754,315.233397 488.33862,347.111303 C479.531679,359.936165 472.840606,375.737548 454.935082,375.737548 C448.806759,375.737548 443.857339,373.886557 439.607191,370.937429 Z" id="Combined-Shape" fill="#E24CA6"></path>
                    <g id="Eyes-Copy-2" transform="translate(0.000000, 62.622925)">
                        <path d="M268.923077,238.448829 C348.603989,238.448829 382.153846,192.126017 382.153846,126.340656 C382.153846,60.5552944 331.458704,0 268.923077,0 C206.38745,0 155.692308,60.5552944 155.692308,126.340656 C155.692308,192.126017 189.242165,238.448829 268.923077,238.448829 Z" id="Oval" fill="#FFFFFF"></path>
                        <g id="Pupil" transform="translate(269.480315, 54.699208)">
                            <ellipse id="Oval" fill="#030776" cx="42.4615385" cy="46.9671935" rx="42.4615385" ry="46.9671935"></ellipse>
                            <ellipse id="Oval" fill="#FFFFFF" cx="48.4239855" cy="33.9559783" rx="21.2307692" ry="21.6771662"></ellipse>
                        </g>
                    </g>
                </g>
                <g id="Group-3" transform="translate(50.000000, 0.000000)">
                    <path d="M31.4466174,212.610169 L426.3834,212.610169 L426.3834,242.983051 C417.453226,251.661017 379.840199,256 313.544319,256 C247.24844,256 153.215873,251.661017 31.4466174,242.983051 L31.4466174,212.610169 Z" id="Rectangle" fill="#000000" opacity="0.0978655134"></path>
                    <g id="Group-3-Copy">
                        <path d="M31.4466174,214.779661 C96.5460871,188.745763 161.645557,175.728814 226.745027,175.728814 C291.844496,175.728814 356.943966,188.745763 422.043436,214.779661 C422.043436,136.677966 409.023542,84.6101695 382.983754,58.5762712 C356.943966,32.5423729 324.394231,19.5254237 285.334549,19.5254237 L265.804708,0 L187.685345,0 L168.155504,19.5254237 C129.095822,19.5254237 96.5460871,32.5423729 70.5062992,58.5762712 C44.4665113,84.6101695 31.4466174,136.677966 31.4466174,214.779661 Z" id="Path-11" fill="#FFE942"></path>
                        <g id="Path-11-Copy-2" transform="translate(31.446617, 0.000000)">
                            <mask id="mask-2" fill="white">
                                <use xlink:href="#path-1"></use>
                            </mask>
                            <use id="Path-11-Copy" fill="#FFE942" xlink:href="#path-1"></use>
                            <path d="M273.417773,17.3559322 C325.497349,33.2655367 355.153774,96.180791 362.387048,206.101695 C362.498498,207.795355 390.322141,204.454001 390.596818,206.101695 L390.596818,36.8813559 L273.417773,17.3559322 Z" id="Path-2" fill="#FADD00" mask="url(#mask-2)"></path>
                        </g>
                        <path d="M11.9167764,234.305085 C3.23684714,236.474576 -9.7830468,225.627119 11.9167764,214.779661 C33.6165997,203.932203 119.330901,175.728814 226.745027,175.728814 C334.159152,175.728814 410.708147,206.363802 441.573277,214.779661 C472.438406,223.19552 456.763153,236.474576 441.573277,234.305085 C426.3834,232.135593 298.354443,214.779661 226.745027,214.779661 C155.13561,214.779661 20.5967057,232.135593 11.9167764,234.305085 Z" id="Path-12" fill="#F3D806"></path>
                        <polygon id="Path-13" points="187.685345 0 168.155504 19.5254237 187.685345 117.152542 265.804708 117.152542 285.334549 19.5254237 265.804708 0"></polygon>
                        <g id="Path-13-Copy-2" transform="translate(168.155504, 0.000000)">
                            <mask id="mask-4" fill="white">
                                <use xlink:href="#path-3"></use>
                            </mask>
                            <g id="Path-13-Copy"></g>
                            <polygon id="Path-5" fill="#FADD00" mask="url(#mask-4)" points="19.5298409 0 88.9313031 8.08813869 99.8191869 21.6949153 95.4792223 134.508475 121.51901 0"></polygon>
                        </g>
                    </g>
                </g>
            </g>
        </g>
    </g>
</svg>