<?xml version="1.0" encoding="UTF-8"?>
<svg width="577px" height="320px" viewBox="0 0 577 320" version="1.1" xmlns="http://www.w3.org/2000/svg" xmlns:xlink="http://www.w3.org/1999/xlink">
    <!-- Generator: Sketch 55.1 (78136) - https://sketchapp.com -->
    <title>Group 3</title>
    <desc>Created with Sketch.</desc>
    <defs>
        <path d="M64.722372,41.4109275 L64.722372,141.286093 C64.722372,159.158682 50.2337755,173.647279 32.361186,173.647279 C14.4885965,173.647279 9.29418831e-15,159.158682 -2.84217094e-14,141.286093 L-2.84217094e-14,20.7302994 C6.03994467,9.61955962 12.9397955,1.58280412e-12 25.3792121,1.53477231e-12 C45.6292605,1.53477231e-12 52.7045141,25.4921987 64.722372,41.4109275 Z M186.975741,46.6107243 L186.975741,204.515158 C186.975741,224.37359 170.877301,240.472031 151.018868,240.472031 C131.160435,240.472031 115.061995,224.37359 115.061995,204.515158 L115.061995,25.8082791 C121.833147,12.7250611 128.812357,1.53477231e-12 143.119481,1.53477231e-12 C165.770359,1.53477231e-12 171.937267,31.8951948 186.975741,46.6107243 Z M302.037736,43.7140379 L302.037736,158.362631 C302.037736,176.23522 287.549139,190.723817 269.67655,190.723817 C251.80396,190.723817 237.315364,176.23522 237.315364,158.362631 L237.315364,17.4630334 C242.949787,7.79888581 249.659217,1.53477231e-12 260.85975,1.53477231e-12 C282.118437,1.53477231e-12 288.857191,28.0949361 302.037736,43.7140379 Z" id="path-1"></path>
        <path d="M64.722372,71.9998508 C58.981912,64.9557926 52.1867812,59.7286619 42.3590709,59.7286619 C19.0227731,59.7286619 14.7391253,89.2015426 -7.10542736e-15,102.489072 L0,-24.7073576 C4.9166664e-15,-42.5799471 14.4885965,-57.0685436 32.361186,-57.0685436 C50.2337755,-57.0685436 64.722372,-42.5799471 64.722372,-24.7073576 L64.722372,71.9998508 Z M186.975741,74.2739472 C180.853327,66.1106349 173.696694,59.7286619 162.837486,59.7286619 C136.874532,59.7286619 134.494612,96.2096733 115.061995,106.295608 L115.061995,49.9972166 C115.061995,30.1387838 131.160435,14.0403433 151.018868,14.0403433 C170.877301,14.0403433 186.975741,30.1387838 186.975741,49.9972166 L186.975741,74.2739472 Z M302.037736,67.9645558 C297.056061,63.0496073 291.149323,59.7286619 283.3159,59.7286619 C258.165166,59.7286619 255.145013,93.9628481 237.315364,105.273458 L237.315364,-8.90538272 C237.315364,-26.7779722 251.80396,-41.2665687 269.67655,-41.2665687 C287.549139,-41.2665687 302.037736,-26.7779722 302.037736,-8.90538272 L302.037736,67.9645558 Z" id="path-3"></path>
        <polygon id="path-5" points="0 0 14 126 221 126 238 0"></polygon>
    </defs>
    <g id="Page-1" stroke="none" stroke-width="1" fill="none" fill-rule="evenodd">
        <g id="Building-Livewire-Copy" transform="translate(-150.000000, -180.000000)">
            <g id="Group-3" transform="translate(146.000000, 180.000000)">
                <g id="Group-5">
                    <g id="Jelly">
                        <path d="M487.016812,347.003095 C478.520058,359.876432 472.064646,375.737548 454.78976,375.737548 C425.716545,375.737548 424.144599,330.812407 395.055821,330.812407 C365.967042,330.812407 367.538988,375.737548 338.465773,375.737548 C309.392558,375.737548 307.820612,330.812407 278.731834,330.812407 C249.643055,330.812407 251.215001,375.737548 222.141786,375.737548 C193.068572,375.737548 191.496626,330.812407 162.407847,330.812407 C133.319069,330.812407 134.891015,375.737548 105.8178,375.737548 C96.6806816,375.737548 90.2599095,371.300217 84.8476161,365.21468 C64.043924,328.933521 52.0754717,286.417676 52.0754717,240.962123 C52.0754717,107.882417 154.661396,0 281.207547,0 C407.753698,0 510.339623,107.882417 510.339623,240.962123 C510.339623,279.013405 501.952699,315.00468 487.016815,347.00309 Z" id="Body-Copy-2" fill="#FB70A9"></path>
                        <g id="Legs" transform="translate(124.981132, 281.803161)">
                            <mask id="mask-2" fill="white">
                                <use xlink:href="#path-1"></use>
                            </mask>
                            <use id="Combined-Shape" fill="#4E56A6" xlink:href="#path-1"></use>
                            <mask id="mask-4" fill="white">
                                <use xlink:href="#path-3"></use>
                            </mask>
                            <use id="Combined-Shape" fill-opacity="0.298513986" fill="#000000" xlink:href="#path-3"></use>
                        </g>
                        <path d="M487.016812,347.003095 C478.520058,359.876432 472.064646,375.737548 454.78976,375.737548 C425.716545,375.737548 424.144599,330.812407 395.055821,330.812407 C365.967042,330.812407 367.538988,375.737548 338.465773,375.737548 C309.392558,375.737548 307.820612,330.812407 278.731834,330.812407 C249.643055,330.812407 251.215001,375.737548 222.141786,375.737548 C193.068572,375.737548 191.496626,330.812407 162.407847,330.812407 C133.319069,330.812407 134.891015,375.737548 105.8178,375.737548 C96.6806816,375.737548 90.2599095,371.300217 84.8476161,365.21468 C64.043924,328.933521 52.0754717,286.417676 52.0754717,240.962123 C52.0754717,107.882417 154.661396,0 281.207547,0 C407.753698,0 510.339623,107.882417 510.339623,240.962123 C510.339623,279.013405 501.952699,315.00468 487.016815,347.00309 Z" id="Body-Copy-4" fill="#FB70A9"></path>
                        <path d="M439.607207,370.937405 C499.652585,281.422378 501.204142,182.129936 444.261877,73.0600788 C486.469727,116.391876 512.512851,175.856674 512.512851,241.469681 C512.512851,279.377664 503.819754,315.233397 488.33862,347.111303 C479.531679,359.936165 472.840606,375.737548 454.935082,375.737548 C448.806759,375.737548 443.857339,373.886557 439.607191,370.937429 Z" id="Combined-Shape" fill="#E24CA6"></path>
                        <g id="Eyes-Copy-2" transform="translate(0.000000, 62.622925)">
                            <path d="M268.923077,238.448829 C348.603989,238.448829 382.153846,192.126017 382.153846,126.340656 C382.153846,60.5552944 331.458704,0 268.923077,0 C206.38745,0 155.692308,60.5552944 155.692308,126.340656 C155.692308,192.126017 189.242165,238.448829 268.923077,238.448829 Z" id="Oval" fill="#FFFFFF"></path>
                            <g id="Pupil" transform="translate(199.000000, 25.377075)">
                                <ellipse id="Oval" fill="#030776" cx="42.4615385" cy="46.9671935" rx="42.4615385" ry="46.9671935"></ellipse>
                                <ellipse id="Oval" fill="#FFFFFF" cx="36.2307692" cy="33.6771662" rx="21.2307692" ry="21.6771662"></ellipse>
                            </g>
                        </g>
                    </g>
                </g>
                <g id="popcorn" transform="translate(263.000000, 160.000000)" fill-rule="nonzero">
                    <path d="M15.8557505,84.1851852 C15.8557505,67.380117 29.4785575,53.7563353 46.2846004,53.7563353 C50.2787524,53.7563353 54.088694,54.5331384 57.5818713,55.9317739 C59.0409357,40.4853801 72.0419103,28.3986355 87.8693957,28.3986355 C90.8323587,28.3986355 93.6929825,28.8304094 96.4005848,29.619883 C101.048733,18.7641326 111.826511,11.1559454 124.383041,11.1559454 C129.615984,11.1559454 134.539961,12.4785575 138.841131,14.8050682 C144.159844,5.93762183 153.862573,0 164.955166,0 C175.882066,0 185.459064,5.76218324 190.825536,14.411306 C194.940546,12.334308 199.587719,11.1569201 204.512671,11.1569201 C217.069201,11.1569201 227.847953,18.7641326 232.495127,29.6208577 C235.202729,28.831384 238.063353,28.3996101 241.026316,28.3996101 C256.725146,28.3996101 269.64425,40.2894737 271.276803,55.5545809 C274.5,54.3927875 277.973684,53.7563353 281.597466,53.7563353 C298.402534,53.7563353 312.026316,67.3791423 312.026316,84.1851852 L312.026316,115.62768 L15.8557505,115.62768 L15.8557505,84.1851852 L15.8557505,84.1851852 Z" id="Path" fill="#FAE2C0"></path>
                    <path d="M281.597466,53.7563353 C277.973684,53.7563353 274.5,54.3927875 271.276803,55.5545809 C269.643275,40.2894737 256.725146,28.3996101 241.026316,28.3996101 C238.063353,28.3996101 235.202729,28.831384 232.495127,29.6208577 C232.495127,29.6208577 242.378168,77.0847953 164.955166,77.0847953 C153.335283,77.0847953 142.702729,81.3645224 134.526316,88.417154 C126.349903,81.3645224 115.717349,77.0847953 104.098441,77.0847953 C92.4785575,77.0847953 81.8460039,81.3645224 73.6695906,88.417154 C65.4931774,81.3645224 54.8606238,77.0847953 43.2407407,77.0847953 C33.0146199,77.0847953 23.5526316,80.4005848 15.8547758,86.0019493 L15.8547758,115.62768 L312.024366,115.62768 L312.024366,84.1851852 C312.024366,67.380117 298.402534,53.7563353 281.597466,53.7563353 L281.597466,53.7563353 Z" id="Path" fill="#FAD59A"></path>
                    <path d="M317.096491,123.741715 C317.096491,106.652047 303.008772,92.8538012 285.812865,93.3255361 C269.238791,93.7797271 256.239766,107.795322 256.239766,124.375244 L256.239766,499.025341 L287.298246,499.025341 C292.632554,499.025341 297.036062,494.853801 297.324561,489.526316 L316.927875,126.94152 C317.038012,125.889864 317.096491,124.822612 317.096491,123.741715 Z" id="Path" fill="#EC6161"></path>
                    <path d="M225.811891,93.3138402 C209.006823,93.3138402 195.383041,106.936647 195.383041,123.74269 L195.383041,499.025341 L256.239766,499.025341 L256.239766,123.741715 C256.239766,106.936647 242.616959,93.3138402 225.811891,93.3138402 Z" id="Path" fill="#E8F3FF"></path>
                    <path d="M164.955166,93.3138402 C148.150097,93.3138402 134.526316,106.936647 134.526316,123.74269 L134.526316,499.025341 L195.383041,499.025341 L195.383041,123.741715 C195.383041,106.936647 181.760234,93.3138402 164.955166,93.3138402 Z" id="Path" fill="#EC6161"></path>
                    <path d="M104.098441,93.3138402 C87.2933723,93.3138402 73.6695906,106.936647 73.6695906,123.74269 L73.6695906,499.025341 L134.526316,499.025341 L134.526316,123.741715 C134.526316,106.936647 120.903509,93.3138402 104.098441,93.3138402 Z" id="Path" fill="#E8F3FF"></path>
                    <path d="M44.0964912,93.3255361 C26.9005848,92.8538012 12.8128655,106.653021 12.8128655,123.741715 C12.8128655,124.822612 12.871345,125.889864 12.9814815,126.94152 L32.5847953,489.526316 C32.8723197,494.852827 37.2758285,499.025341 42.6111111,499.025341 L73.6695906,499.025341 L73.6695906,124.375244 C73.6695906,107.795322 60.6705653,93.7797271 44.0964912,93.3255361 Z" id="Path" fill="#EC6161"></path>
                </g>
                <g id="Group-6" transform="translate(4.000000, 121.154713)">
                    <path d="M141.891619,46.7800954 C142.595857,47.9714013 143,49.3611476 143,50.8452865 L143,132.845287 C143,137.263565 139.418278,140.845287 135,140.845287 L127,140.845287 C122.581722,140.845287 119,137.263565 119,132.845287 L119,55.956284 L89.2288419,17.8509393 C86.5086783,14.3692887 87.1259855,9.34172497 90.6076361,6.62156142 L96.9117221,1.69626962 C100.393373,-1.02389393 105.420936,-0.406586731 108.1411,3.07506384 L140.771158,44.8396338 C141.245147,45.4463113 141.617799,46.0999276 141.891619,46.7800954 Z" id="Combined-Shape" fill="#FFFFFF"></path>
                    <g id="Rectangle" transform="translate(13.000000, 140.845287)">
                        <mask id="mask-6" fill="white">
                            <use xlink:href="#path-5"></use>
                        </mask>
                        <use id="Mask" fill="#EC6161" xlink:href="#path-5"></use>
                        <path d="M-5.62239516,-11 L239.975505,-11 C243.551699,-10.999999 246.693501,-8.62651531 247.670912,-5.18648191 C268.549851,68.2977425 265.992881,92.6932365 240,68 C213.861355,43.1682873 131.356338,29.225533 -7.5150522,26.171737 C-11.9322654,26.0746074 -15.4343806,22.4150052 -15.3372457,17.9977921 C-15.3337913,17.8407052 -15.3257098,17.6837541 -15.3130116,17.5271432 L-13.5962275,-3.64652695 C-13.2594206,-7.80047896 -9.78997913,-11 -5.62239516,-11 Z" fill="#D55454" mask="url(#mask-6)" transform="translate(122.810811, 33.158065) scale(-1, 1) translate(-122.810811, -33.158065) "></path>
                    </g>
                    <rect id="Rectangle-Copy-4" fill="#E8F3FF" x="0" y="115.845287" width="259" height="40" rx="8"></rect>
                </g>
            </g>
        </g>
    </g>
</svg>