<?xml version="1.0" encoding="UTF-8"?>
<svg width="47px" height="53px" viewBox="0 0 47 53" version="1.1" xmlns="http://www.w3.org/2000/svg" xmlns:xlink="http://www.w3.org/1999/xlink">
    <defs>
        <path d="M6.56412344,4.2010364 L6.56412344,14.3340262 C6.56412344,16.1466588 5.09469436,17.6160879 3.28206172,17.6160879 C1.46942908,17.6160879 -3.01424984e-14,16.1466588 -2.84217094e-14,14.3340262 L-2.84217094e-14,2.10303772 C0.612569366,0.975880585 1.31235016,1.09583399e-13 2.57395204,1.0658141e-13 C4.62770583,1.01694493e-13 5.34527592,2.58612065 6.56412344,4.2010364 Z M18.9630233,4.72854296 L18.9630233,20.7485589 C18.9630233,22.7625951 17.3303243,24.3952941 15.316288,24.3952941 C13.3022518,24.3952941 11.6695528,22.7625951 11.6695528,20.7485589 L11.6695528,2.61818622 C12.356281,1.29092604 13.0641104,1.0658141e-13 14.5151346,1.0658141e-13 C16.8123798,1.0658141e-13 17.4378258,3.2356888 18.9630233,4.72854296 Z M30.632576,4.43468127 L30.632576,16.0663988 C30.632576,17.8790315 29.163147,19.3484605 27.3505143,19.3484605 C25.5378817,19.3484605 24.0684526,17.8790315 24.0684526,16.0663988 L24.0684526,1.77158165 C24.6398942,0.79117772 25.3203625,1.0658141e-13 26.4563172,1.0658141e-13 C28.6123668,1.0658141e-13 29.2958092,2.85016194 30.632576,4.43468127 Z" id="hyrule"></path>
        <path d="M6.56412344,7.30420719 C5.98192772,6.58960487 5.29276761,6.05932536 4.2960442,6.05932536 C1.92928391,6.05932536 1.49483765,9.04927637 9.43689571e-16,10.3972635 L0,-2.5074012 C6.66194944e-16,-4.32003383 1.46942908,-5.78946292 3.28206172,-5.78946292 C5.09469436,-5.78946292 6.56412344,-4.32003383 6.56412344,-2.5074012 L6.56412344,7.30420719 Z M18.9630233,7.53490866 C18.3420899,6.70676077 17.6162663,6.05932536 16.5149287,6.05932536 C13.8817737,6.05932536 13.640403,9.76023394 11.6695528,10.7834271 L11.6695528,5.07109342 C11.6695528,3.05705716 13.3022518,1.42435818 15.316288,1.42435818 C17.3303243,1.42435818 18.9630233,3.05705716 18.9630233,5.07109342 L18.9630233,7.53490866 Z M30.632576,6.89483648 C30.127336,6.39622707 29.5282765,6.05932536 28.7338132,6.05932536 C26.1830333,6.05932536 25.8767302,9.53229907 24.0684526,10.6797325 L24.0684526,-0.904329842 C24.0684526,-2.71696248 25.5378817,-4.18639156 27.3505143,-4.18639156 C29.163147,-4.18639156 30.632576,-2.71696248 30.632576,-0.904329842 L30.632576,6.89483648 Z" id="path3"></path>
    </defs>
    <g id="Page-1" stroke="none" stroke-width="1" fill="none" fill-rule="evenodd">
        <g id="Custom-Preset-3-Copy" transform="translate(-113.000000, -111.000000)">
            <g id="NotJelly" transform="translate(108.000000, 111.000000)">
                <path d="M49.3930984,35.2026072 C48.53136,36.5085756 47.8766542,38.1176471 46.1246402,38.1176471 C43.1760436,38.1176471 43.0166173,33.5601023 40.0664421,33.5601023 C37.116267,33.5601023 37.2756933,38.1176471 34.3270966,38.1176471 C31.3784999,38.1176471 31.2190737,33.5601023 28.2688985,33.5601023 C25.3187234,33.5601023 25.4781496,38.1176471 22.529553,38.1176471 C19.5809563,38.1176471 19.42153,33.5601023 16.4713549,33.5601023 C13.5211797,33.5601023 13.680606,38.1176471 10.7320093,38.1176471 C9.80532556,38.1176471 9.15413279,37.6674908 8.60521963,37.0501281 C6.49531545,33.369494 5.28147863,29.0563664 5.28147863,24.4450128 C5.28147863,10.944405 15.6857121,0 28.5199846,0 C41.3542571,0 51.7584906,10.944405 51.7584906,24.4450128 C51.7584906,28.3052214 50.9078913,31.9564475 49.3930984,35.2026072 Z" id="Body-Copy-2" fill="#FB70A9"></path>
                <g id="Legs" transform="translate(12.675549, 28.588235)">
                    <mask id="mask-2" fill="white">
                        <use xlink:href="#hyrule"></use>
                    </mask>
                    <use id="Combined-Shape" fill="#4E56A6" xlink:href="#hyrule"></use>
                    <mask id="mask-4" fill="white">
                        <use xlink:href="#path3"></use>
                    </mask>
                    <use id="Combined-Shape" fill-opacity="0.298513986" fill="#000000" xlink:href="#path3"></use>
                </g>
                <path d="M49.3930984,35.2026072 C48.53136,36.5085756 47.8766542,38.1176471 46.1246402,38.1176471 C43.1760436,38.1176471 43.0166173,33.5601023 40.0664421,33.5601023 C37.116267,33.5601023 37.2756933,38.1176471 34.3270966,38.1176471 C31.3784999,38.1176471 31.2190737,33.5601023 28.2688985,33.5601023 C25.3187234,33.5601023 25.4781496,38.1176471 22.529553,38.1176471 C19.5809563,38.1176471 19.42153,33.5601023 16.4713549,33.5601023 C13.5211797,33.5601023 13.680606,38.1176471 10.7320093,38.1176471 C9.80532556,38.1176471 9.15413279,37.6674908 8.60521963,37.0501281 C6.49531545,33.369494 5.28147863,29.0563664 5.28147863,24.4450128 C5.28147863,10.944405 15.6857121,0 28.5199846,0 C41.3542571,0 51.7584906,10.944405 51.7584906,24.4450128 C51.7584906,28.3052214 50.9078913,31.9564475 49.3930984,35.2026072 Z" id="Body-Copy-4" fill="#FB70A9"></path>
                <path d="M44.3644205,37.6306868 C50.4542062,28.5496076 50.6115652,18.4766335 44.8364974,7.41176471 C49.1172048,11.8076686 51.7584906,17.8402256 51.7584906,24.4965033 C51.7584906,28.3421746 50.8768393,31.9796503 49.3067473,35.2135851 C48.4135502,36.5146353 47.7349437,38.1176471 45.9189706,38.1176471 C45.297438,38.1176471 44.7954693,37.9298686 44.3644205,37.6306868 Z" id="Combined-Shape" fill="#E24CA6"></path>
                <g id="Eyes-Copy-2" transform="translate(0.000000, 6.352941)">
                    <path d="M27.2740973,24.1900452 C35.3553114,24.1900452 38.7579278,19.4907103 38.7579278,12.8169478 C38.7579278,6.14318519 33.6164418,0 27.2740973,0 C20.9317529,0 15.7902669,6.14318519 15.7902669,12.8169478 C15.7902669,19.4907103 19.1928833,24.1900452 27.2740973,24.1900452 Z" id="Oval" fill="#FFFFFF"></path>
                    <g id="Pupil" transform="translate(19.880027, 3.665158)">
                        <ellipse id="Oval" fill="#030776" cx="4.30643642" cy="4.76470588" rx="4.30643642" ry="4.76470588"></ellipse>
                        <ellipse id="Oval" fill="#FFFFFF" cx="3.58869702" cy="3.66515837" rx="2.15321821" ry="2.19909502"></ellipse>
                    </g>
                </g>
            </g>
        </g>
    </g>
</svg>
